<?xml version="1.0" encoding="UTF-8" standalone="no"?>
<!-- Created with Inkscape (http://www.inkscape.org/) -->

<svg
   width="219.93806mm"
   height="219.938mm"
   viewBox="0 0 219.93806 219.938"
   version="1.1"
   id="svg1"
   xml:space="preserve"
   xmlns="http://www.w3.org/2000/svg"
   xmlns:svg="http://www.w3.org/2000/svg"><defs
     id="defs1" /><g
     id="layer1"
     transform="translate(-911.87421,-1484.1211)"><rect
       style="fill:#23214b;fill-opacity:1;stroke-width:7.9274;stroke-linejoin:round"
       id="rect59"
       width="219.938"
       height="219.938"
       x="1131.8123"
       y="1264.1831"
       ry="0" /><rect
       style="fill:none;fill-opacity:1;stroke-width:7.9274;stroke-linejoin:round"
       id="rect60"
       width="219.938"
       height="219.938"
       x="911.87427"
       y="1264.1831"
       ry="0" /><rect
       style="fill:#ffb380;fill-opacity:1;stroke-width:7.9274;stroke-linejoin:round"
       id="rect61"
       width="219.938"
       height="219.938"
       x="1131.8123"
       y="1484.1211"
       ry="0" /><g
       id="g63"><rect
         style="fill:none;fill-opacity:1;stroke-width:7.9274;stroke-linejoin:round"
         id="rect62"
         width="219.938"
         height="219.938"
         x="911.87427"
         y="1484.1211"
         ry="0" /><path
         style="fill:#e6e6e6;fill-opacity:1;stroke-width:1.57296"
         d="m 1011.3884,1619.3362 c -5.3388,-2.7261 -10.5288,-5.3753 -11.53343,-5.8871 l -1.8265,-0.9306 v -18.2595 -18.2597 l 11.82913,-6.0383 c 6.5061,-3.3211 11.8697,-6.0541 11.9191,-6.0735 0.08,-0.031 0.6157,0.2332 5.2884,2.619 2.859,1.4599 6.4352,3.2855 7.9469,4.057 1.5117,0.7715 4.5254,2.3097 6.6974,3.4183 l 3.9487,2.0155 v 18.2609 18.2611 l -11.5334,5.8873 c -6.3432,3.2379 -11.5452,5.8877 -11.5595,5.8884 -0.016,8e-4 -0.027,-5.5722 -0.027,-12.3842 v -12.3857 l 2.8859,-4.0274 c 1.5873,-2.215 2.8728,-4.0319 2.8568,-4.0376 -0.016,0 -1.4567,0.4365 -3.2013,0.9828 -1.7446,0.5463 -3.1989,0.9931 -3.2321,0.9931 -0.033,0 -1.5044,-0.4519 -3.2696,-1.0043 -1.7653,-0.5526 -3.205,-0.9911 -3.1995,-0.9746 0,0.017 1.3057,1.838 2.8892,4.0479 l 2.879,4.0178 v 12.3867 c 0,6.8128 -0.016,12.3859 -0.027,12.385 -0.016,-9e-4 -4.3942,-2.2322 -9.733,-4.9583 z m 5.758,-10.3096 v -7.3371 l -5.6685,-7.9104 c -3.1176,-4.3505 -5.6501,-7.9145 -5.6274,-7.9197 0.022,0 3.6175,0.8286 7.9889,1.8528 4.3714,1.0242 7.976,1.8621 8.0104,1.8621 0.035,0 3.6418,-0.8384 8.0166,-1.863 4.3749,-1.0247 7.968,-1.8583 7.9847,-1.8527 0.017,0 -1.6021,2.2884 -3.5974,5.0725 -1.9953,2.7841 -4.5471,6.3448 -5.6707,7.9125 l -2.0428,2.8502 v 7.3388 c 0,5.8575 0.016,7.335 0.044,7.3203 0.024,-0.016 3.2139,-1.6369 7.0888,-3.6152 l 7.0453,-3.5971 v -14.8824 -14.8825 l -9.4344,-4.8145 -9.4343,-4.8147 -4.1518,2.1169 c -2.2835,1.1643 -6.5314,3.3314 -9.4402,4.8158 l -5.2882,2.6988 v 14.8794 14.8794 l 7.0802,3.6133 c 3.894,1.9871 7.0839,3.6132 7.0887,3.6134 0,10e-5 0.016,-3.3015 0.016,-7.3369 z"
         id="path61" /></g></g><style
     id="style2"
     type="text/css">
	.st0{fill-rule:evenodd;clip-rule:evenodd;fill:#FF0000;fill-opacity:0;}
	.st1{fill:#D40000;}
	.st2{opacity:0.4217;fill-rule:evenodd;clip-rule:evenodd;fill:#0000FF;enable-background:new    ;}
	.st3{fill-rule:evenodd;clip-rule:evenodd;fill:#D40000;}
	.st4{stroke:#000000;stroke-width:5;stroke-miterlimit:10;}
	.st5{stroke:#000000;stroke-width:1.4295;}
</style><style
     id="style2-0"
     type="text/css">
	.st0{fill-rule:evenodd;clip-rule:evenodd;fill:#FF0000;fill-opacity:0;}
	.st1{fill:#D40000;}
	.st2{opacity:0.4217;fill-rule:evenodd;clip-rule:evenodd;fill:#0000FF;enable-background:new    ;}
	.st3{fill-rule:evenodd;clip-rule:evenodd;fill:#D40000;}
	.st4{stroke:#000000;stroke-width:5;stroke-miterlimit:10;}
	.st5{stroke:#000000;stroke-width:1.4295;}
</style></svg>
