<?xml version="1.0" encoding="UTF-8" standalone="no"?>
<!-- Created with Inkscape (http://www.inkscape.org/) -->

<svg
   width="219.93797mm"
   height="219.93806mm"
   viewBox="0 0 219.93797 219.93806"
   version="1.1"
   id="svg1"
   xml:space="preserve"
   xmlns:xlink="http://www.w3.org/1999/xlink"
   xmlns="http://www.w3.org/2000/svg"
   xmlns:svg="http://www.w3.org/2000/svg"><defs
     id="defs1"><linearGradient
       id="linearGradient2321"><stop
         id="stop2317"
         offset="0"
         style="stop-color:#ff5f6d;stop-opacity:1" /><stop
         id="stop2319"
         offset="1"
         style="stop-color:#ffc371;stop-opacity:1" /></linearGradient><linearGradient
       gradientTransform="matrix(0.19459234,0,0,0.49396517,1118.3011,604.36906)"
       gradientUnits="userSpaceOnUse"
       y2="222.62502"
       x2="1199.6832"
       y1="222.62502"
       x1="69.433197"
       id="linearGradient2323"
       xlink:href="#linearGradient2321" /></defs><g
     id="layer1"
     transform="translate(-1131.8122,-604.36902)"><rect
       style="fill:#232122;fill-opacity:1;stroke:none;stroke-width:4.92327;stroke-linecap:square;stroke-dasharray:none;stroke-opacity:1;paint-order:markers stroke fill"
       id="rect4"
       width="219.93799"
       height="219.93799"
       x="1131.8123"
       y="384.43103" /><g
       id="g38"><rect
         y="604.36902"
         x="1131.8123"
         height="219.938"
         width="219.938"
         id="rect2293"
         style="fill:url(#linearGradient2323);fill-opacity:1;fill-rule:evenodd;stroke:none;stroke-width:0.310035;stroke-linecap:round;stroke-miterlimit:4;stroke-dasharray:none" /><g
         style="fill:#000000"
         id="g2315"
         transform="matrix(0.1457126,0,0,0.1457126,1145.957,622.24282)"><path
           d="m 263.75,580.6582 v 34.25 34.25 34.25 H 298 v -34.25 -8.5625 h 34.25 v -17.125 H 298 v -8.5625 -34.25 z m 68.5,42.8125 h 34.25 v -42.8125 h -34.25 z m 0,17.125 v 42.8125 h 34.25 v -42.8125 z"
           style="opacity:1;fill:#000000;fill-rule:evenodd;stroke:none;stroke-width:1.11803;stroke-linecap:round;stroke-miterlimit:4;stroke-dasharray:none"
           id="path2301" /><path
           d="m 400.75,580.6582 v 34.25 34.25 34.25 H 435 v -34.25 -8.5625 h 34.25 v 8.5625 34.25 h 34.25 v -34.25 -34.25 -34.25 H 469.25 435 Z m 34.25,34.25 h 34.25 v 8.5625 H 435 Z"
           style="opacity:1;fill:#000000;fill-rule:evenodd;stroke:none;stroke-width:1;stroke-linecap:round;stroke-miterlimit:4;stroke-dasharray:none"
           id="path2303" /><path
           d="m 537.75,580.6582 v 34.25 34.25 34.25 H 572 606.25 640.5 v -34.25 -8.5625 h -17.125 v -17.125 H 640.5 v -8.5625 -34.25 H 606.25 572 Z m 34.25,34.25 h 34.25 v 8.5625 h -17.125 v 17.125 h 17.125 v 8.5625 H 572 Z"
           style="opacity:1;fill:#000000;fill-rule:evenodd;stroke:none;stroke-width:1;stroke-linecap:round;stroke-miterlimit:4;stroke-dasharray:none"
           id="path2305" /><path
           d="m 674.75,580.6582 v 34.25 34.25 34.25 H 709 743.25 777.5 v -34.25 -34.25 -34.25 H 743.25 709 Z m 34.25,34.25 h 34.25 v 34.25 H 709 Z"
           style="opacity:1;fill:#000000;fill-rule:evenodd;stroke:none;stroke-width:1;stroke-linecap:round;stroke-miterlimit:4;stroke-dasharray:none"
           id="path2307" /><path
           d="m 811.75,580.6582 v 34.25 34.25 34.25 H 846 880.25 914.5 v -34.25 -34.25 -34.25 H 880.25 846 Z m 34.25,34.25 h 34.25 v 34.25 H 846 Z"
           style="opacity:1;fill:#000000;fill-rule:evenodd;stroke:none;stroke-width:1;stroke-linecap:round;stroke-miterlimit:4;stroke-dasharray:none"
           id="path2309" /><path
           d="m 948.75,580.6582 v 34.25 34.25 34.25 H 983 v -34.25 -34.25 h 8.5625 v 17.125 h 17.125 v -17.125 h 8.5625 v 34.25 34.25 h 34.25 v -34.25 -34.25 -34.25 h -34.25 -8.5625 v 17.125 h -17.125 v -17.125 H 983 Z"
           style="opacity:1;fill:#000000;fill-rule:evenodd;stroke:none;stroke-width:1;stroke-linecap:round;stroke-miterlimit:4;stroke-dasharray:none"
           id="path2311" /><path
           d="m 195.25,512.1582 v 34.25 34.25 34.25 34.25 34.25 34.25 17.125 h 17.125 v 17.125 h 17.125 34.25 34.25 34.25 34.25 34.25 34.25 34.25 34.25 34.25 34.25 34.25 34.25 34.25 34.25 34.25 34.25 34.25 34.25 34.25 34.25 34.25 34.25 34.25 34.25 34.25 34.25 v -34.25 -34.25 -34.25 -34.25 -34.25 -34.25 -17.125 h -17.125 v -17.125 H 1085.75 1051.5 1017.25 983 948.75 914.5 880.25 846 811.75 777.5 743.25 709 674.75 640.5 606.25 572 537.75 503.5 469.25 435 400.75 366.5 332.25 298 263.75 229.5 Z m 34.25,34.25 h 34.25 34.25 34.25 34.25 34.25 34.25 34.25 34.25 34.25 34.25 34.25 34.25 34.25 34.25 34.25 34.25 34.25 34.25 34.25 34.25 34.25 34.25 34.25 34.25 34.25 v 34.25 34.25 34.25 34.25 34.25 H 1051.5 1017.25 983 948.75 914.5 880.25 846 811.75 777.5 743.25 709 674.75 640.5 606.25 572 537.75 503.5 469.25 435 400.75 366.5 332.25 298 263.75 229.5 v -34.25 -34.25 -34.25 -34.25 z"
           style="opacity:1;fill:#000000;fill-rule:evenodd;stroke:none;stroke-width:1;stroke-linecap:round;stroke-miterlimit:4;stroke-dasharray:none"
           id="path2313" /></g></g></g></svg>
