<?xml version="1.0" encoding="UTF-8" standalone="no"?>
<!-- Created with Inkscape (http://www.inkscape.org/) -->

<svg
   width="219.93797mm"
   height="219.93813mm"
   viewBox="0 0 219.93797 219.93813"
   version="1.1"
   id="svg1"
   xml:space="preserve"
   xmlns="http://www.w3.org/2000/svg"
   xmlns:svg="http://www.w3.org/2000/svg"><defs
     id="defs1" /><g
     id="layer1"
     transform="translate(-1131.8122,-1264.1831)"><rect
       style="fill:#23214b;fill-opacity:1;stroke-width:7.9274;stroke-linejoin:round"
       id="rect59"
       width="219.938"
       height="219.938"
       x="1131.8123"
       y="1264.1831"
       ry="0" /><rect
       style="fill:#111427;fill-opacity:1;stroke-width:7.9274;stroke-linejoin:round"
       id="rect58"
       width="219.938"
       height="219.938"
       x="1131.8123"
       y="1044.2451"
       ry="0" /><path
       style="fill:#ffffff;fill-opacity:1;stroke-width:1.62142"
       d="m 1227.9436,1396.7797 -13.8328,-13.8377 v -18.1228 -18.123 h 9.3384 9.3384 l 4.4896,-4.5048 4.4893,-4.5047 4.5189,4.5047 4.5189,4.5048 h 9.3239 9.3236 v 18.1279 18.1278 l -13.8377,13.8328 -13.8377,13.8328 z m 35.0733,-30.0244 v -13.624 h -7.411 -7.4111 l -3.1966,-3.2182 -3.1966,-3.218 -3.2372,3.218 -3.2372,3.2182 h -7.3907 -7.3908 v 13.6176 13.6176 l 10.6146,10.621 10.6147,10.6209 10.6209,-10.6144 10.621,-10.6147 z m -33.6766,10.829 c 0.3236,-1.9158 0.058,-2.0717 -1.494,-0.8786 -0.7698,0.5915 -1.2156,0.6931 -1.6088,0.3669 -0.8942,-0.7421 -0.6223,-1.4966 0.7433,-2.0623 0.7078,-0.2931 1.2869,-0.6792 1.2869,-0.8579 0,-0.1788 -0.5791,-0.5649 -1.2869,-0.858 -1.3656,-0.5657 -1.6375,-1.3202 -0.7433,-2.0623 0.3932,-0.3262 0.839,-0.2246 1.6088,0.3669 1.5529,1.1931 1.8176,1.0372 1.494,-0.8786 -0.2761,-1.6348 -0.2374,-1.716 0.8203,-1.716 1.0129,0 1.1102,0.154 1.1102,1.751 v 1.751 l 1.4761,-0.9124 c 1.4635,-0.9044 1.4799,-0.9049 1.9305,-0.063 0.6211,1.1608 0.621,1.1615 -0.8326,1.7635 -0.7079,0.2932 -1.287,0.6792 -1.287,0.8581 0,0.1786 0.5791,0.5647 1.287,0.8579 1.4536,0.602 1.4537,0.6026 0.8326,1.7634 -0.4506,0.8419 -0.467,0.8414 -1.9305,-0.063 l -1.4761,-0.9124 v 1.751 c 0,1.5976 -0.097,1.7511 -1.1102,1.7511 -1.0577,0 -1.0964,-0.081 -0.8203,-1.7161 z m 11.442,0 c 0.1881,-1.9723 0.039,-2.0507 -1.5398,-0.8091 -0.634,0.4988 -1.2132,0.8367 -1.2866,0.7508 -0.073,-0.086 -0.3532,-0.5779 -0.6212,-1.0935 -0.4418,-0.85 -0.3471,-0.9881 1.0144,-1.4806 1.8854,-0.6816 1.8899,-1.0339 0.021,-1.6506 -1.3706,-0.4523 -1.4451,-0.5662 -1.0037,-1.5348 0.5712,-1.2537 0.68,-1.2636 2.055,-0.1881 1.469,1.149 1.5471,1.0997 1.3605,-0.858 -0.154,-1.6202 -0.099,-1.716 0.999,-1.716 1.0977,0 1.1535,0.096 0.9989,1.716 -0.1881,1.9723 -0.039,2.0507 1.5399,0.8091 0.634,-0.4988 1.2131,-0.8367 1.2866,-0.7508 0.073,0.086 0.352,0.5758 0.6187,1.0888 0.4398,0.8461 0.3454,0.9789 -1.0145,1.4277 -1.8875,0.6229 -1.887,0.9735 0,1.6567 1.3615,0.4925 1.4562,0.6306 1.0144,1.4806 -0.2681,0.5156 -0.5476,1.0077 -0.6212,1.0935 -0.073,0.086 -0.6526,-0.252 -1.2866,-0.7508 -1.5786,-1.2416 -1.7279,-1.1632 -1.5399,0.8091 0.1541,1.6201 0.099,1.7161 -0.9989,1.7161 -1.0977,0 -1.1535,-0.096 -0.999,-1.7161 z m 11.5095,-0.036 v -1.751 l -1.4761,0.9124 -1.476,0.9122 -0.4892,-0.914 c -0.5642,-1.0541 -0.6406,-0.9388 1.2644,-1.9084 l 1.4695,-0.7482 -1.4499,-0.6096 c -1.8683,-0.7856 -1.8591,-0.7723 -1.284,-1.847 l 0.4892,-0.914 1.476,0.9122 1.4761,0.9124 v -1.751 c 0,-1.5976 0.097,-1.7509 1.1102,-1.7509 1.0575,0 1.0964,0.081 0.8203,1.7159 -0.3236,1.9159 -0.058,2.0717 1.494,0.8787 0.7698,-0.5915 1.2156,-0.6932 1.6088,-0.367 0.8942,0.7422 0.6223,1.4966 -0.7433,2.0623 -0.7078,0.2932 -1.2869,0.6838 -1.2869,0.8681 0,0.1842 0.5791,0.5369 1.2869,0.7837 1.3502,0.4705 1.6623,1.3637 0.7433,2.1265 -0.3932,0.3262 -0.839,0.2245 -1.6088,-0.367 -1.5529,-1.193 -1.8176,-1.0372 -1.494,0.8787 0.2761,1.6347 0.2372,1.7161 -0.8203,1.7161 -1.0129,0 -1.1102,-0.154 -1.1102,-1.7511 z"
       id="path59" /></g><style
     id="style2"
     type="text/css">
	.st0{fill-rule:evenodd;clip-rule:evenodd;fill:#FF0000;fill-opacity:0;}
	.st1{fill:#D40000;}
	.st2{opacity:0.4217;fill-rule:evenodd;clip-rule:evenodd;fill:#0000FF;enable-background:new    ;}
	.st3{fill-rule:evenodd;clip-rule:evenodd;fill:#D40000;}
	.st4{stroke:#000000;stroke-width:5;stroke-miterlimit:10;}
	.st5{stroke:#000000;stroke-width:1.4295;}
</style></svg>
