<?xml version="1.0" encoding="UTF-8" standalone="no"?>
<!-- Created with Inkscape (http://www.inkscape.org/) -->

<svg
   width="219.93796mm"
   height="219.938mm"
   viewBox="0 0 219.93796 219.938"
   version="1.1"
   id="svg1"
   xml:space="preserve"
   xmlns="http://www.w3.org/2000/svg"
   xmlns:svg="http://www.w3.org/2000/svg"><defs
     id="defs1" /><rect
     style="fill:#232122;fill-opacity:1;stroke:none;stroke-width:4.92327;stroke-linecap:square;stroke-dasharray:none;stroke-opacity:1;paint-order:markers stroke fill"
     id="rect3"
     width="219.93799"
     height="219.93799"
     x="5.5859375e-05"
     y="6.7333985e-06" /><rect
     style="opacity:0.25;fill:#f7567c;fill-opacity:1;stroke:none;stroke-width:5.93564;stroke-linecap:square;stroke-dasharray:none;paint-order:markers stroke fill"
     id="rect17"
     width="123.31601"
     height="12.512585"
     x="48.31105"
     y="113.18262" /><path
     d="m 56.809485,115.90963 q 0,2.4036 3.448655,2.4036 3.48349,0 3.48349,-2.15976 0,-1.14955 -1.184387,-1.88108 -1.184386,-0.73154 -2.891296,-1.21923 -1.672076,-0.48768 -3.378986,-1.11471 -1.672075,-0.66186 -2.856461,-2.02043 -1.184387,-1.39339 -1.184387,-3.44865 0,-8.743561 11.251673,-8.743561 4.110518,0 6.200612,1.567571 2.124929,1.53274 2.124929,4.28469 0,1.01021 -0.278679,1.95076 -0.243845,0.9057 -0.522524,1.28889 l -0.278679,0.41802 h -6.165777 q 0.766367,-0.80121 0.766367,-2.02043 0,-2.26427 -2.960966,-2.26427 -3.727334,0 -3.727334,2.36878 0,1.18438 1.184386,1.88108 1.184387,0.6967 2.856462,1.11472 1.70691,0.38318 3.41382,0.97538 1.70691,0.59219 2.891297,1.98559 1.184386,1.35856 1.184386,3.55315 0,4.42404 -2.647452,6.5838 -2.647452,2.12493 -8.151367,2.12493 -5.503914,0 -7.524338,-1.95075 -1.497901,-1.46307 -1.497901,-4.04085 0,-0.97538 0.20901,-2.12493 l 0.104504,-0.55736 h 6.270282 l -0.06967,0.41802 q -0.06967,0.34835 -0.06967,0.62703 z m 22.420417,7.62884 q -4.040849,0 -5.817429,-1.81141 -1.323726,-1.32373 -1.323726,-3.55316 0,-0.73154 0.13934,-1.56758 l 2.368773,-13.4811 6.374787,-2.64745 -1.010212,5.81742 h 9.614432 l -0.870872,4.91173 h -9.614433 l -0.696698,3.93634 q -0.139339,0.66186 -0.139339,1.18439 0,2.19459 2.090094,2.19459 1.114716,0 1.846249,-0.94054 0.766368,-0.94054 1.045047,-2.50811 h 5.782594 q -1.463066,8.46488 -9.788607,8.46488 z m 26.948928,-5.85226 q 0,0.9057 0.9057,0.9057 0.94055,0 1.56757,-0.34834 l -0.17417,3.93634 q -1.67208,1.35856 -3.76217,1.35856 -3.83184,0 -4.24986,-2.78679 -1.741743,2.78679 -5.120728,2.78679 -5.712923,0 -5.712923,-4.91172 0,-0.83604 0.174174,-1.84625 l 0.731533,-4.07568 q 0.557358,-3.13515 2.542948,-4.98139 2.020424,-1.88109 5.225235,-1.88109 3.239641,0 4.389201,1.4979 l 0.17417,-1.04505 h 5.29491 l -1.95076,10.973 q -0.0348,0.20901 -0.0348,0.41802 z m -10.311134,-1.67208 q -0.06967,0.31352 -0.06967,0.87087 0,0.55736 0.522523,1.11472 0.522524,0.52252 1.741745,0.52252 1.254057,0 2.159766,-0.97537 l 1.04505,-5.85227 q -0.38319,-0.87087 -1.81142,-0.87087 -2.682287,0 -3.135141,2.57778 z m 30.571734,2.57778 q 0.8012,0 1.42823,-0.34834 l -0.17417,3.93634 q -1.63724,1.35856 -4.00602,1.35856 -2.36877,0 -3.51832,-1.25406 -1.11472,-1.25405 -1.74175,-4.21502 l -0.1045,-0.48769 q -0.73154,0.10451 -2.1946,0.17418 l -0.94054,5.2949 h -5.92194 l 4.66788,-26.439688 h 5.92193 l -2.02042,11.460678 q 2.05526,-2.26426 5.57358,-2.26426 2.36878,0 3.48349,1.18438 1.14955,1.14955 1.14955,3.10031 0,3.76217 -3.93634,5.8871 l 0.38318,1.28889 q 0.38319,1.32372 1.95076,1.32372 z m -6.02644,-8.04686 q -1.88108,0 -3.34415,1.77658 l -0.38318,2.29911 q 5.15556,-0.20901 5.15556,-2.75196 0,-0.59219 -0.38318,-0.94054 -0.34835,-0.38319 -1.04505,-0.38319 z m 25.93869,8.04686 q 0.80121,0 1.42823,-0.34834 l -0.17417,3.93634 q -1.63724,1.35856 -4.00601,1.35856 -2.36878,0 -3.51833,-1.25406 -1.11472,-1.25405 -1.74174,-4.21502 l -0.10451,-0.48769 q -0.73153,0.10451 -2.1946,0.17418 l -0.94054,5.2949 h -5.92193 l 4.66787,-26.439688 h 5.92194 l -2.02043,11.460678 q 2.05526,-2.26426 5.57359,-2.26426 2.36877,0 3.48349,1.18438 1.14955,1.14955 1.14955,3.10031 0,3.76217 -3.93634,5.8871 l 0.38318,1.28889 q 0.38318,1.32372 1.95075,1.32372 z m -6.02643,-8.04686 q -1.88109,0 -3.34415,1.77658 l -0.38319,2.29911 q 5.15557,-0.20901 5.15557,-2.75196 0,-0.59219 -0.38319,-0.94054 -0.34835,-0.38319 -1.04504,-0.38319 z m 25.59034,7.14116 q 0,0.9057 0.90571,0.9057 0.94054,0 1.56757,-0.34834 l -0.17418,3.93634 q -1.67207,1.35856 -3.76217,1.35856 -3.83184,0 -4.24985,-2.78679 -1.74175,2.78679 -5.12073,2.78679 -5.71293,0 -5.71293,-4.91172 0,-0.83604 0.17418,-1.84625 l 0.73153,-4.07568 q 0.55736,-3.13515 2.54295,-4.98139 2.02042,-1.88109 5.57358,-1.88109 2.1946,0 3.48349,0.94054 l 1.77658,-10.171788 h 5.95677 l -3.65767,20.657098 q -0.0348,0.20901 -0.0348,0.41802 z m -10.31113,-1.67208 q -0.0697,0.31352 -0.0697,0.87087 0,0.55736 0.52252,1.11472 0.52253,0.52252 1.74175,0.52252 1.25405,0 2.15976,-0.97537 l 1.04505,-5.85227 q -0.38319,-0.87087 -1.81142,-0.87087 -2.68228,0 -3.13514,2.57778 z"
     id="text1"
     style="font-size:34.8349px;line-height:1.2;font-family:'Fugaz One';-inkscape-font-specification:'Fugaz One, Normal';letter-spacing:-1.05833px;fill:#f7567c;stroke-width:46.9638;stroke-linecap:square;paint-order:markers stroke fill"
     aria-label="Stakkd" /><rect
     style="opacity:0.25;fill:#f7567c;fill-opacity:1;stroke:none;stroke-width:3.34543;stroke-linecap:square;stroke-dasharray:none;paint-order:markers stroke fill"
     id="rect18"
     width="123.31601"
     height="3.9748156"
     x="48.31105"
     y="127.81879" /></svg>
