<?xml version="1.0" encoding="UTF-8" standalone="no"?>
<!-- Created with Inkscape (http://www.inkscape.org/) -->

<svg
   width="219.93806mm"
   height="219.938mm"
   viewBox="0 0 219.93806 219.938"
   version="1.1"
   id="svg1"
   xml:space="preserve"
   xmlns="http://www.w3.org/2000/svg"
   xmlns:svg="http://www.w3.org/2000/svg"><defs
     id="defs1" /><rect
     style="fill:none;stroke:none;stroke-width:4.92327;stroke-linecap:square;stroke-dasharray:none;stroke-opacity:1;paint-order:markers stroke fill"
     id="rect2"
     width="219.93799"
     height="219.93799"
     x="5.7578123e-05"
     y="6.7333985e-06" /><path
     d="m 56.809405,115.80388 q 0,2.4036 3.448655,2.4036 3.48349,0 3.48349,-2.15976 0,-1.14955 -1.184387,-1.88108 -1.184386,-0.73154 -2.891296,-1.21923 -1.672076,-0.48768 -3.378986,-1.11471 -1.672075,-0.66187 -2.856462,-2.02043 -1.184386,-1.39339 -1.184386,-3.44865 0,-8.743562 11.251673,-8.743562 4.110518,0 6.200612,1.56757 2.124929,1.532732 2.124929,4.284692 0,1.01021 -0.27868,1.95076 -0.243844,0.9057 -0.522523,1.28889 l -0.278679,0.41802 h -6.165778 q 0.766368,-0.80121 0.766368,-2.02043 0,-2.26427 -2.960966,-2.26427 -3.727335,0 -3.727335,2.36878 0,1.18438 1.184387,1.88108 1.184387,0.6967 2.856462,1.11472 1.70691,0.38318 3.41382,0.97537 1.70691,0.5922 2.891297,1.98559 1.184386,1.35857 1.184386,3.55316 0,4.42404 -2.647452,6.5838 -2.647452,2.12493 -8.151367,2.12493 -5.503914,0 -7.524338,-1.95076 -1.497901,-1.46306 -1.497901,-4.04084 0,-0.97538 0.20901,-2.12493 l 0.104504,-0.55736 h 6.270282 l -0.06967,0.41802 q -0.06967,0.34835 -0.06967,0.62703 z m 22.420417,7.62884 q -4.040849,0 -5.817429,-1.81142 -1.323726,-1.32372 -1.323726,-3.55316 0,-0.73153 0.13934,-1.56757 l 2.368773,-13.4811 6.374787,-2.64745 -1.010212,5.81742 h 9.614432 l -0.870873,4.91172 h -9.614432 l -0.696698,3.93635 q -0.13934,0.66186 -0.13934,1.18438 0,2.1946 2.090094,2.1946 1.114717,0 1.84625,-0.94054 0.766368,-0.94054 1.045047,-2.50811 h 5.782593 q -1.463065,8.46488 -9.788606,8.46488 z m 26.948928,-5.85226 q 0,0.9057 0.9057,0.9057 0.94055,0 1.56757,-0.34835 l -0.17417,3.93635 q -1.67208,1.35856 -3.76217,1.35856 -3.83184,0 -4.24986,-2.78679 -1.741743,2.78679 -5.120728,2.78679 -5.712924,0 -5.712924,-4.91172 0,-0.83604 0.174175,-1.84625 l 0.731533,-4.07569 q 0.557358,-3.13514 2.542948,-4.98139 2.020424,-1.88108 5.225235,-1.88108 3.239641,0 4.389201,1.4979 l 0.17417,-1.04505 h 5.29491 l -1.95076,10.973 q -0.0348,0.20901 -0.0348,0.41802 z m -10.311134,-1.67208 q -0.06967,0.31351 -0.06967,0.87087 0,0.55736 0.522523,1.11472 0.522524,0.52252 1.741745,0.52252 1.254057,0 2.159766,-0.97537 l 1.04504,-5.85227 q -0.38318,-0.87087 -1.81141,-0.87087 -2.682287,0 -3.135141,2.57778 z m 30.571734,2.57778 q 0.8012,0 1.42823,-0.34835 l -0.17417,3.93635 q -1.63724,1.35856 -4.00602,1.35856 -2.36877,0 -3.51832,-1.25406 -1.11472,-1.25405 -1.74175,-4.21502 l -0.1045,-0.48769 q -0.73154,0.10451 -2.1946,0.17418 l -0.94054,5.2949 h -5.92194 l 4.66788,-26.439689 h 5.92193 l -2.02042,11.460679 q 2.05526,-2.26427 5.57358,-2.26427 2.36878,0 3.48349,1.18439 1.14955,1.14955 1.14955,3.10031 0,3.76217 -3.93634,5.8871 l 0.38318,1.28889 q 0.38319,1.32372 1.95076,1.32372 z m -6.02644,-8.04686 q -1.88108,0 -3.34415,1.77658 l -0.38318,2.2991 q 5.15556,-0.209 5.15556,-2.75195 0,-0.5922 -0.38318,-0.94054 -0.34835,-0.38319 -1.04505,-0.38319 z m 25.93869,8.04686 q 0.80121,0 1.42823,-0.34835 l -0.17417,3.93635 q -1.63724,1.35856 -4.00601,1.35856 -2.36878,0 -3.51833,-1.25406 -1.11472,-1.25405 -1.74174,-4.21502 l -0.10451,-0.48769 q -0.73153,0.10451 -2.1946,0.17418 l -0.94054,5.2949 H 129.178 l 4.66787,-26.439689 h 5.92194 l -2.02043,11.460679 q 2.05526,-2.26427 5.57359,-2.26427 2.36877,0 3.48349,1.18439 1.14955,1.14955 1.14955,3.10031 0,3.76217 -3.93634,5.8871 l 0.38318,1.28889 q 0.38318,1.32372 1.95075,1.32372 z m -6.02643,-8.04686 q -1.88109,0 -3.34415,1.77658 l -0.38319,2.2991 q 5.15557,-0.209 5.15557,-2.75195 0,-0.5922 -0.38319,-0.94054 -0.34835,-0.38319 -1.04504,-0.38319 z m 25.59034,7.14116 q 0,0.9057 0.90571,0.9057 0.94054,0 1.56757,-0.34835 l -0.17418,3.93635 q -1.67207,1.35856 -3.76217,1.35856 -3.83184,0 -4.24985,-2.78679 -1.74175,2.78679 -5.12073,2.78679 -5.71293,0 -5.71293,-4.91172 0,-0.83604 0.17418,-1.84625 l 0.73153,-4.07569 q 0.55736,-3.13514 2.54295,-4.98139 2.02042,-1.88108 5.57358,-1.88108 2.1946,0 3.48349,0.94054 l 1.77658,-10.171789 h 5.95677 l -3.65767,20.657099 q -0.0348,0.20901 -0.0348,0.41802 z m -10.31113,-1.67208 q -0.0697,0.31351 -0.0697,0.87087 0,0.55736 0.52252,1.11472 0.52253,0.52252 1.74175,0.52252 1.25405,0 2.15976,-0.97537 l 1.04505,-5.85227 q -0.38319,-0.87087 -1.81142,-0.87087 -2.68228,0 -3.13514,2.57778 z"
     id="text2"
     style="font-size:34.8349px;line-height:1.2;font-family:'Fugaz One';-inkscape-font-specification:'Fugaz One, Normal';letter-spacing:-1.05833px;fill:none;stroke:#e6e6e6;stroke-width:1.32292;stroke-linecap:square;paint-order:markers stroke fill"
     aria-label="Stakkd" /></svg>
