<?xml version="1.0" encoding="UTF-8" standalone="no"?>
<!-- Created with Inkscape (http://www.inkscape.org/) -->

<svg
   width="219.93797mm"
   height="219.938mm"
   viewBox="0 0 219.93797 219.938"
   version="1.1"
   id="svg1"
   xml:space="preserve"
   xmlns="http://www.w3.org/2000/svg"
   xmlns:svg="http://www.w3.org/2000/svg"><defs
     id="defs1" /><g
     id="layer1"
     transform="translate(-1131.8122,-824.30705)"><g
       id="g39"><rect
         style="fill:none;fill-opacity:1;stroke-width:7.9274;stroke-linejoin:round"
         id="rect1002"
         width="219.938"
         height="219.938"
         x="1131.8123"
         y="824.30707"
         ry="0" /><g
         id="g340"
         transform="matrix(0.40373962,0,0,0.40373962,1184.097,876.59178)"><g
           id="g322"
           transform="translate(121.41544)"><path
             id="path316"
             style="color:#000000;fill:#fefefe;stroke-width:0.976629;-inkscape-stroke:none"
             d="m 87.924349,72.342354 -20.15846,91.957696 21.467424,5.8229 28.521257,-89.717005 z m -25.2212,100.923036 -7.087422,26.45058 26.450065,7.08743 7.087423,-26.4511 z" /><path
             style="fill:#29cf95;fill-opacity:1;stroke:none;stroke-width:0.264583px;stroke-linecap:butt;stroke-linejoin:miter;stroke-opacity:1"
             d="m 86.31983,79.660402 -2.601661,-0.689911 -19.118551,87.213969 16.961019,4.61385 0.80699,-2.53757 4.716298,1.27938 -2.269072,7.13729 -25.973714,-7.0313 21.199377,-96.703089 7.326035,1.942533 z"
             id="path318" /><path
             style="fill:#29cf95;fill-opacity:1;stroke:none;stroke-width:0.264583px;stroke-linecap:butt;stroke-linejoin:miter;stroke-opacity:1"
             d="m 60.762699,180.50733 1.263489,-4.71548 -7.095691,-1.90117 -8.350911,31.16605 31.166056,8.35092 1.940965,-7.24194 -4.715989,-1.26349 -0.677479,2.52595 -21.733557,-5.82394 5.825484,-21.73356 z"
             id="path320" /></g><g
           id="g330"
           transform="translate(60.70771)"><path
             id="path324"
             style="color:#000000;fill:#fefefe;stroke-width:0.976629;-inkscape-stroke:none"
             d="m 87.924349,72.342354 -20.15846,91.957696 21.467424,5.8229 28.521257,-89.717005 z m -25.2212,100.923036 -7.087422,26.45058 26.450065,7.08743 7.087423,-26.4511 z" /><path
             style="fill:#29cf95;fill-opacity:1;stroke:none;stroke-width:0.264583px;stroke-linecap:butt;stroke-linejoin:miter;stroke-opacity:1"
             d="m 86.31983,79.660402 -2.601661,-0.689911 -19.118551,87.213969 16.961019,4.61385 0.80699,-2.53757 4.716298,1.27938 -2.269072,7.13729 -25.973714,-7.0313 21.199377,-96.703089 7.326035,1.942533 z"
             id="path326" /><path
             style="fill:#29cf95;fill-opacity:1;stroke:none;stroke-width:0.264583px;stroke-linecap:butt;stroke-linejoin:miter;stroke-opacity:1"
             d="m 60.762699,180.50733 1.263489,-4.71548 -7.095691,-1.90117 -8.350911,31.16605 31.166056,8.35092 1.940965,-7.24194 -4.715989,-1.26349 -0.677479,2.52595 -21.733557,-5.82394 5.825484,-21.73356 z"
             id="path328" /></g><g
           id="g338"><path
             id="path332"
             style="color:#000000;fill:#fefefe;stroke-width:0.976629;-inkscape-stroke:none"
             d="m 87.924349,72.342354 -20.15846,91.957696 21.467424,5.8229 28.521257,-89.717005 z m -25.2212,100.923036 -7.087422,26.45058 26.450065,7.08743 7.087423,-26.4511 z" /><path
             style="fill:#29cf95;fill-opacity:1;stroke:none;stroke-width:0.264583px;stroke-linecap:butt;stroke-linejoin:miter;stroke-opacity:1"
             d="m 86.31983,79.660402 -2.601661,-0.689911 -19.118551,87.213969 16.961019,4.61385 0.80699,-2.53757 4.716298,1.27938 -2.269072,7.13729 -25.973714,-7.0313 21.199377,-96.703089 7.326035,1.942533 z"
             id="path334" /><path
             style="fill:#29cf95;fill-opacity:1;stroke:none;stroke-width:0.264583px;stroke-linecap:butt;stroke-linejoin:miter;stroke-opacity:1"
             d="m 60.762699,180.50733 1.263489,-4.71548 -7.095691,-1.90117 -8.350911,31.16605 31.166056,8.35092 1.940965,-7.24194 -4.715989,-1.26349 -0.677479,2.52595 -21.733557,-5.82394 5.825484,-21.73356 z"
             id="path336" /></g></g></g></g></svg>
