<?xml version="1.0" encoding="UTF-8" standalone="no"?>
<!-- Created with Inkscape (http://www.inkscape.org/) -->

<svg
   width="219.93806mm"
   height="219.93806mm"
   viewBox="0 0 219.93806 219.93806"
   version="1.1"
   id="svg1"
   xml:space="preserve"
   xmlns="http://www.w3.org/2000/svg"
   xmlns:svg="http://www.w3.org/2000/svg"><defs
     id="defs1" /><g
     id="layer1"
     transform="translate(-911.87421,-1044.2451)"><g
       id="g58"><rect
         style="fill:none;fill-opacity:1;stroke-width:7.9274;stroke-linejoin:round"
         id="rect49"
         width="219.938"
         height="219.938"
         x="911.87427"
         y="1044.2451"
         ry="0" /><path
         id="path14"
         style="font-variation-settings:'wght' 900;fill:none;fill-opacity:1;stroke:#e6e6e6;stroke-width:1.32292;stroke-linecap:square;stroke-dasharray:none;stroke-opacity:1"
         d="m 1023.2921,1119.5844 c -2.8912,-0.1085 -5.8417,0.143 -8.8036,0.7684 -9.9045,2.0912 -18.83248,8.984 -23.49524,18.1395 -1.32286,2.5975 -2.71985,6.8555 -3.24115,9.8789 -0.56106,3.2542 -0.5781,8.3119 -0.0388,11.4526 0.77731,4.5269 2.51667,9.0752 4.92012,12.8653 2.06166,3.2512 4.11863,5.6063 6.97218,7.982 6.16499,5.1325 13.37599,7.8474 21.50109,8.0956 6.7912,0.2074 14.1567,-1.9152 19.8851,-5.7304 2.1051,-1.402 5.3305,-4.2016 6.6766,-5.7955 l 1.0335,-1.2242 -1.3818,1.1581 c -6.7134,5.6275 -15.3056,7.9585 -23.9066,6.4854 -10.2182,-1.7501 -19.1616,-9.4325 -22.378,-19.2242 -0.3471,-1.0568 -0.8076,-2.7885 -1.0237,-3.8478 -0.398,-1.9507 -0.44334,-2.9095 -0.0847,-1.7901 0.328,1.0242 1.7878,3.9674 2.7006,5.4446 1.3035,2.1097 3.4261,4.6173 5.3046,6.2673 1.8346,1.6115 1.8958,1.4457 0.2532,-0.6862 -5.4539,-7.0782 -6.6734,-17.574 -3.0288,-26.063 0.9239,-2.152 2.3495,-4.5431 3.5631,-5.9759 0.5552,-0.6554 0.9123,-1.1872 0.7938,-1.1818 -0.3945,0.018 -3.0355,2.511 -4.4716,4.2209 -0.7794,0.9281 -1.9092,2.4911 -2.5109,3.4732 -1.0803,1.7633 -2.5072,4.7175 -2.58023,5.3428 -0.0207,0.1771 -0.10866,0.3219 -0.19534,0.3219 -0.52096,-10e-5 1.16357,-6.2201 2.41227,-8.9074 3.3548,-7.2195 9.5913,-12.7922 17.1307,-15.3081 8.8246,-2.9447 19.0932,-1.3726 26.1483,4.0033 3.4508,2.6295 3.4338,2.6271 0.986,0.1432 -6.3261,-6.4192 -14.4672,-9.983 -23.1407,-10.3084 z m 6.2719,10.6665 2.0624,0.2362 c 1.1344,0.1302 2.6508,0.3923 3.3693,0.5824 2.5864,0.6841 4.4834,1.4947 6.8921,2.945 1.3207,0.7952 1.9868,1.3546 3.9894,3.3486 2.5332,2.5223 3.1827,3.3801 4.4995,5.9439 0.7668,1.493 1.7078,4.086 2.079,5.7283 0.622,2.7517 0.6273,5.8464 0.1229,9.4914 -0.873,4.7484 -3.0615,8.9248 -6.552,12.4153 -4.0993,4.0994 -8.8546,6.3353 -14.7815,6.951 l -1.4062,0.1462 1.7012,-0.023 c 0.9358,-0.013 2.6245,-0.2084 3.7528,-0.4351 7.0426,-1.415 13.2859,-6.2239 16.5457,-12.744 0.979,-1.9582 1.7459,-4.3561 2.1157,-6.2647 l 0.013,-0.01 c 0.018,-0.1097 0.033,-0.217 0.049,-0.3256 0.071,-0.4069 0.1186,-0.7782 0.1457,-1.1198 0.3367,-3.1028 0.077,-5.6929 -0.2646,-7.5128 -0.01,-0.04 -0.017,-0.089 -0.024,-0.1307 -0.078,-0.4004 -0.1574,-0.7562 -0.2362,-1.0743 -0.01,-0.031 -0.013,-0.057 -0.022,-0.088 -0.2493,-0.9867 -0.4706,-1.5482 -0.4744,-1.5632 -1.2243,-3.67 -2.5538,-5.9245 -5.1914,-8.8047 -0.2701,-0.2949 -0.5474,-0.5831 -0.8315,-0.863 v 0 c -4.2622,-4.1984 -10.064,-6.6884 -15.9416,-6.8022 z m -8.1008,13.2881 v 7.816 c 0,0.9329 -0.04,1.9143 -0.1204,2.9435 -0.08,1.0294 -0.2573,2.0666 -0.5307,3.112 -0.2573,1.0293 -0.6598,2.0265 -1.2066,2.9915 -0.5468,0.9489 -1.2862,1.8257 -2.219,2.6299 0.193,0.1125 0.4181,0.2812 0.6754,0.5064 0.2573,0.2251 0.5065,0.4584 0.7477,0.6997 0.2413,0.2573 0.4264,0.4742 0.5551,0.6511 1.0293,-0.8685 1.8574,-1.8575 2.4846,-2.9673 0.6433,-1.1258 1.1257,-2.2999 1.4474,-3.5222 0.071,-0.2746 0.1374,-0.5479 0.1984,-0.8201 h 10.7059 v 3.884 c 0,0.2412 -0.056,0.4181 -0.169,0.5307 -0.096,0.097 -0.2893,0.153 -0.5788,0.169 h -0.9648 -1.5922 c -0.595,-0.016 -1.1903,-0.04 -1.7854,-0.072 0.1448,0.2252 0.2893,0.5066 0.4341,0.8444 0.1447,0.3378 0.2734,0.6675 0.386,0.9891 0.1289,0.3378 0.2176,0.6351 0.2656,0.8925 1.2706,0 2.332,-0.032 3.1844,-0.097 0.8684,-0.048 1.576,-0.1851 2.1228,-0.4103 0.5147,-0.2091 0.8848,-0.5306 1.11,-0.9648 0.2252,-0.4342 0.3375,-1.0536 0.3375,-1.8577 v -17.9488 h -1.5436 -11.2908 z m 2.6536,2.5332 h 10.0842 v 3.2566 h -10.0842 z m 0,5.7174 h 10.0868 v 3.2567 h -10.2821 c 0.01,-0.097 0.02,-0.1931 0.029,-0.2894 0.098,-1.05 0.1531,-2.0391 0.1658,-2.9673 z" /></g><rect
       style="fill:#111427;fill-opacity:1;stroke-width:7.9274;stroke-linejoin:round"
       id="rect58"
       width="219.938"
       height="219.938"
       x="1131.8123"
       y="1044.2451"
       ry="0" /></g></svg>
