<?xml version="1.0" encoding="UTF-8" standalone="no"?>
<!-- Created with Inkscape (http://www.inkscape.org/) -->

<svg
   width="120.60083mm"
   height="28.250326mm"
   viewBox="0 0 120.60083 28.250326"
   version="1.1"
   id="svg1"
   xml:space="preserve"
   xmlns="http://www.w3.org/2000/svg"
   xmlns:svg="http://www.w3.org/2000/svg"><defs
     id="defs1" /><g
     id="layer1"
     transform="translate(-961.54281,-260.33689)"><path
       d="m 968.68362,280.29689 q 0,2.40361 3.44865,2.40361 3.48349,0 3.48349,-2.15976 0,-1.14955 -1.18439,-1.88109 -1.18438,-0.73153 -2.89129,-1.21922 -1.67208,-0.48769 -3.37899,-1.11471 -1.67207,-0.66187 -2.85646,-2.02043 -1.18439,-1.39339 -1.18439,-3.44865 0,-8.74356 11.25168,-8.74356 4.11051,0 6.20061,1.56757 2.12493,1.53273 2.12493,4.28469 0,1.01021 -0.27868,1.95075 -0.24385,0.90571 -0.52253,1.2889 l -0.27867,0.41801 h -6.16578 q 0.76637,-0.8012 0.76637,-2.02042 0,-2.26427 -2.96097,-2.26427 -3.72734,0 -3.72734,2.36878 0,1.18438 1.18439,1.88108 1.18439,0.6967 2.85646,1.11472 1.70691,0.38318 3.41382,0.97537 1.70691,0.5922 2.8913,1.98559 1.18439,1.35856 1.18439,3.55316 0,4.42404 -2.64746,6.5838 -2.64745,2.12493 -8.15136,2.12493 -5.50392,0 -7.52434,-1.95076 -1.4979,-1.46306 -1.4979,-4.04084 0,-0.97538 0.20901,-2.12493 l 0.1045,-0.55736 h 6.27028 l -0.0697,0.41802 q -0.0697,0.34835 -0.0697,0.62702 z m 22.42041,7.62885 q -4.04085,0 -5.81743,-1.81142 -1.32372,-1.32372 -1.32372,-3.55316 0,-0.73153 0.13934,-1.56757 l 2.36877,-13.4811 6.37479,-2.64746 -1.01022,5.81743 h 9.61444 l -0.8709,4.91172 h -9.61441 l -0.6967,3.93635 q -0.13934,0.66186 -0.13934,1.18438 0,2.1946 2.0901,2.1946 1.11472,0 1.84625,-0.94054 0.76637,-0.94054 1.04505,-2.50811 h 5.78255 q -1.46303,8.46488 -9.78857,8.46488 z m 26.94897,-5.85227 q 0,0.90571 0.9057,0.90571 0.9405,0 1.5675,-0.34835 l -0.1741,3.93635 q -1.6721,1.35856 -3.7622,1.35856 -3.8318,0 -4.2499,-2.78679 -1.7417,2.78679 -5.1207,2.78679 -5.7129,0 -5.7129,-4.91172 0,-0.83604 0.1742,-1.84625 l 0.7315,-4.07569 q 0.5573,-3.13514 2.5429,-4.98139 2.0205,-1.88108 5.2253,-1.88108 3.2396,0 4.3892,1.4979 l 0.1741,-1.04505 h 5.2949 l -1.9507,10.973 q -0.035,0.20901 -0.035,0.41801 z m -10.3112,-1.67207 q -0.07,0.31351 -0.07,0.87087 0,0.55736 0.5225,1.11472 0.5225,0.52252 1.7417,0.52252 1.2541,0 2.1598,-0.97537 l 1.045,-5.85227 q -0.3831,-0.87087 -1.8114,-0.87087 -2.6823,0 -3.1351,2.57778 z m 30.5718,2.57778 q 0.8012,0 1.4282,-0.34835 l -0.1742,3.93635 q -1.6372,1.35856 -4.006,1.35856 -2.3688,0 -3.5183,-1.25406 -1.1147,-1.25405 -1.7418,-4.21502 l -0.1045,-0.48769 q -0.7315,0.1045 -2.1946,0.17417 l -0.9405,5.29491 h -5.9219 l 4.6678,-26.43969 h 5.922 l -2.0205,11.46068 q 2.0553,-2.26427 5.5736,-2.26427 2.3688,0 3.4835,1.18439 1.1496,1.14955 1.1496,3.10031 0,3.76217 -3.9364,5.88709 l 0.3832,1.2889 q 0.3832,1.32372 1.9508,1.32372 z m -6.0265,-8.04686 q -1.8811,0 -3.3441,1.77658 l -0.3832,2.2991 q 5.1556,-0.20901 5.1556,-2.75195 0,-0.5922 -0.3832,-0.94055 -0.3484,-0.38318 -1.0451,-0.38318 z m 25.9387,8.04686 q 0.8012,0 1.4282,-0.34835 l -0.1741,3.93635 q -1.6373,1.35856 -4.006,1.35856 -2.3688,0 -3.5184,-1.25406 -1.1147,-1.25405 -1.7417,-4.21502 l -0.1045,-0.48769 q -0.7316,0.1045 -2.1946,0.17417 l -0.9406,5.29491 h -5.9219 l 4.6679,-26.43969 h 5.9219 l -2.0204,11.46068 q 2.0553,-2.26427 5.5736,-2.26427 2.3688,0 3.4835,1.18439 1.1495,1.14955 1.1495,3.10031 0,3.76217 -3.9363,5.88709 l 0.3832,1.2889 q 0.3831,1.32372 1.9507,1.32372 z m -6.0264,-8.04686 q -1.8811,0 -3.3442,1.77658 l -0.3832,2.2991 q 5.1556,-0.20901 5.1556,-2.75195 0,-0.5922 -0.3832,-0.94055 -0.3483,-0.38318 -1.045,-0.38318 z m 25.5903,7.14115 q 0,0.90571 0.9057,0.90571 0.9406,0 1.5676,-0.34835 l -0.1742,3.93635 q -1.6721,1.35856 -3.7621,1.35856 -3.8319,0 -4.2499,-2.78679 -1.7417,2.78679 -5.1207,2.78679 -5.713,0 -5.713,-4.91172 0,-0.83604 0.1742,-1.84625 l 0.7315,-4.07569 q 0.5574,-3.13514 2.543,-4.98139 2.0204,-1.88108 5.5736,-1.88108 2.1946,0 3.4835,0.94054 l 1.7766,-10.17179 h 5.9567 l -3.6576,20.6571 q -0.035,0.20901 -0.035,0.41801 z m -10.3111,-1.67207 q -0.07,0.31351 -0.07,0.87087 0,0.55736 0.5225,1.11472 0.5226,0.52252 1.7418,0.52252 1.254,0 2.1598,-0.97537 l 1.045,-5.85227 q -0.3832,-0.87087 -1.8114,-0.87087 -2.6823,0 -3.1352,2.57778 z"
       id="text2"
       style="font-size:34.8349px;line-height:1.2;font-family:'Fugaz One';-inkscape-font-specification:'Fugaz One, Normal';letter-spacing:-1.05833px;fill:none;stroke:#e6e6e6;stroke-width:1.32292;stroke-linecap:square;paint-order:markers stroke fill"
       aria-label="Stakkd" /></g></svg>
